<svg xmlns="http://www.w3.org/2000/svg" width="1600" height="900" viewBox="0 0 1600 900">
<defs>
  <linearGradient id="bg" x1="0" x2="1" y1="0" y2="1">
    <stop offset="0" stop-color="#050512"/>
    <stop offset="0.55" stop-color="#07172d"/>
    <stop offset="1" stop-color="#07132a"/>
  </linearGradient>
  <radialGradient id="g1" cx="20%" cy="0%" r="70%">
    <stop offset="0" stop-color="#20e3b2" stop-opacity="0.35"/>
    <stop offset="1" stop-color="#20e3b2" stop-opacity="0"/>
  </radialGradient>
  <radialGradient id="g2" cx="85%" cy="10%" r="65%">
    <stop offset="0" stop-color="#2ea0ff" stop-opacity="0.35"/>
    <stop offset="1" stop-color="#2ea0ff" stop-opacity="0"/>
  </radialGradient>
  <radialGradient id="g3" cx="75%" cy="95%" r="70%">
    <stop offset="0" stop-color="#6a5cff" stop-opacity="0.28"/>
    <stop offset="1" stop-color="#6a5cff" stop-opacity="0"/>
  </radialGradient>
  <filter id="blur" x="-20%" y="-20%" width="140%" height="140%">
    <feGaussianBlur stdDeviation="18"/>
  </filter>
</defs>
<rect width="1600" height="900" fill="url(#bg)"/>
<rect width="1600" height="900" fill="url(#g1)"/>
<rect width="1600" height="900" fill="url(#g2)"/>
<rect width="1600" height="900" fill="url(#g3)"/>
<g opacity="0.22" filter="url(#blur)">
  <path d="M-50 780 C 300 520, 520 980, 900 700 S 1400 620, 1700 820" fill="none" stroke="#2ea0ff" stroke-width="18"/>
  <path d="M-80 820 C 260 560, 520 1040, 920 740 S 1420 660, 1700 860" fill="none" stroke="#20e3b2" stroke-width="14"/>
</g>
<g transform="translate(130,190)">
  <text x="0" y="0" fill="white" font-family="Inter,system-ui,Segoe UI,Roboto,Arial" font-size="64" font-weight="800">React SPA</text>
  <text x="0" y="110" fill="white" font-family="Inter,system-ui,Segoe UI,Roboto,Arial" font-size="92" font-weight="900">Ojeador Deportivo</text>
  <g transform="translate(0,170)">
    <rect x="0" y="0" rx="26" ry="26" width="880" height="270" fill="rgba(255,255,255,0.05)" stroke="rgba(255,255,255,0.12)"/>
    <text x="38" y="70" fill="rgba(234,240,255,0.92)" font-family="Inter,system-ui" font-size="34" font-weight="700">Portfolio Project</text>
    <text x="38" y="126" fill="rgba(234,240,255,0.70)" font-family="Inter,system-ui" font-size="26">HTML · CSS · Bootstrap · JavaScript</text>
    <text x="38" y="182" fill="rgba(234,240,255,0.70)" font-family="Inter,system-ui" font-size="26">Dark gradient + glow style</text>
  </g>
</g>
</svg>